HIERARCHY
ROOT Hips
{
	OFFSET -3.958830 18.904000 13.208200
	CHANNELS 6 Xposition Yposition Zposition Zrotation Yrotation Xrotation 
	JOINT LHipJoint
	{
		OFFSET 0.000000 0.000000 0.000000
		CHANNELS 3 Zrotation Yrotation Xrotation
		JOINT LeftUpLeg
		{
			OFFSET 1.800000 -1.400000 0.085000
			CHANNELS 3 Zrotation Yrotation Xrotation
			JOINT LeftLeg
			{
				OFFSET 2.215000 -6.000000 0.000000
				CHANNELS 3 Zrotation Yrotation Xrotation
				JOINT LeftFoot
				{
					OFFSET 2.500000 -6.900000 0.000000
					CHANNELS 3 Zrotation Yrotation Xrotation
					JOINT LeftToeBase
					{
						OFFSET 0.200000 -0.500000 1.950000
						CHANNELS 3 Zrotation Yrotation Xrotation
						End Site
						{
							OFFSET 0.000000 0.000000 0.000000
						}
					}
				}
			}
		}
	}
	JOINT RHipJoint
	{
		OFFSET 0.000000 0.000000 0.000000
		CHANNELS 3 Zrotation Yrotation Xrotation
		JOINT RightUpLeg
		{
			OFFSET -1.800000 -1.400000 0.085000
			CHANNELS 3 Zrotation Yrotation Xrotation
			JOINT RightLeg
			{
				OFFSET -2.215000 -6.000000 0.000000
				CHANNELS 3 Zrotation Yrotation Xrotation
				JOINT RightFoot
				{
					OFFSET -2.500000 -6.900000 0.000000
					CHANNELS 3 Zrotation Yrotation Xrotation
					JOINT RightToeBase
					{
						OFFSET -0.200000 -0.500000 1.950000
						CHANNELS 3 Zrotation Yrotation Xrotation
						End Site
						{
							OFFSET 0.000000 0.000000 0.000000
						}
					}
				}
			}
		}
	}
	JOINT LowerBack
	{
		OFFSET 0.000000 0.000000 0.000000
		CHANNELS 3 Zrotation Yrotation Xrotation
		JOINT Spine
		{
			OFFSET -0.087000 1.940000 -0.288900
			CHANNELS 3 Zrotation Yrotation Xrotation
			JOINT Spine1
			{
				OFFSET 0.000000 1.950000 0.060000
				CHANNELS 3 Zrotation Yrotation Xrotation
				JOINT Neck
				{
					OFFSET 0.000000 0.000000 0.000000
					CHANNELS 3 Zrotation Yrotation Xrotation
					JOINT Neck1
					{
						OFFSET 0.000000 1.600000 0.340000
						CHANNELS 3 Zrotation Yrotation Xrotation
						JOINT Head
						{
							OFFSET 0.000000 1.667000 -0.240000
							CHANNELS 3 Zrotation Yrotation Xrotation
							End Site
							{
								OFFSET 0.000000 0.000000 0.000000
							}
						}
					}
				}
				JOINT LeftShoulder
				{
					OFFSET 0.000000 0.000000 0.000000
					CHANNELS 3 Zrotation Yrotation Xrotation
					JOINT LeftArm
					{
						OFFSET 2.700000 1.550000 -0.730000
						CHANNELS 3 Zrotation Yrotation Xrotation
						JOINT LeftForeArm
						{
							OFFSET 5.450000 0.000000 0.000000
							CHANNELS 3 Zrotation Yrotation Xrotation
							JOINT LeftHand
							{
								OFFSET 3.450000 0.000000 0.000000
								CHANNELS 3 Zrotation Yrotation Xrotation
								JOINT LeftHandIndex1
								{
									OFFSET 0.750000 0.000000 0.000000
									CHANNELS 3 Zrotation Yrotation Xrotation
									End Site
									{
										OFFSET 0.000000 0.000000 0.000000
									}
								}
							}
						}
					}
				}
				JOINT RightShoulder
				{
					OFFSET 0.000000 0.000000 0.000000
					CHANNELS 3 Zrotation Yrotation Xrotation
					JOINT RightArm
					{
						OFFSET -2.700000 1.550000 -0.730000
						CHANNELS 3 Zrotation Yrotation Xrotation
						JOINT RightForeArm
						{
							OFFSET -5.450000 0.000000 0.000000
							CHANNELS 3 Zrotation Yrotation Xrotation
							JOINT RightHand
							{
								OFFSET -3.450000 0.000000 0.000000
								CHANNELS 3 Zrotation Yrotation Xrotation
								JOINT RightHandIndex1
								{
									OFFSET -0.750000 0.000000 0.000000
									CHANNELS 3 Zrotation Yrotation Xrotation
									End Site
									{
										OFFSET 0.000000 0.000000 0.000000
									}
								}
							}
						}
					}
				}
			}
		}
	}
}
MOTION
Frames: 11
Frame Time: 0.016667
-4.608280 17.393450 -4.537710 -7.660641 -65.680385 -2.230578 -16.150665 12.231302 6.393597 12.042576 -13.710750 -44.541118 -27.027322 27.664923 56.331090 2.159276 13.625421 -0.118521 0.658800 0.535880 0.815960 17.857366 -7.746782 1.945923 -8.896290 5.896457 -32.619477 -10.586323 -3.161197 56.236875 -1.295130 -7.344293 1.541427 0.022990 -0.464800 0.374930 -0.927083 -7.162896 -9.337065 -3.079410 7.016883 49.228646 16.163379 3.556047 9.642954 -0.786168 -5.662662 -11.967612 -17.227767 19.101699 45.827084 -16.563940 20.998130 -23.328990 -15.450763 -8.357572 5.491633 -12.582688 3.280507 -3.435492 14.485558 -12.081184 -1.211997 -3.246708 3.190112 0.623720 -0.320480 0.671210 0.111670 17.016163 16.381532 8.075662 36.434756 1.951447 -4.932696 -9.866908 0.742708 0.264953 3.027025 -1.277512 0.221830 -0.216510 -0.424900 -0.134290 
-4.507110 17.253630 -4.588200 -5.286261 -66.103757 -3.847764 -16.216977 11.764496 6.896077 15.365179 -15.378454 -46.760283 -36.477783 37.577977 61.131183 2.949893 16.028052 -0.617542 0.657060 0.529270 0.805460 17.901336 -7.380171 1.693408 -8.653950 5.288055 -33.487618 -12.399933 -2.569010 57.184560 -1.352768 -7.500538 1.494846 0.011210 -0.464240 0.365840 -0.692768 -7.345882 -9.632083 -3.906555 7.754059 49.007591 17.797632 3.326060 9.734689 -1.308985 -6.335617 -13.434270 -19.635791 19.581807 45.973614 -15.042600 19.851190 -23.192840 -13.775691 -11.472296 6.082824 -4.601609 -1.243363 -1.953357 10.199511 -5.979454 -0.528051 -3.306986 3.105515 0.643200 -0.347640 0.678170 0.106940 16.896310 19.590759 9.623167 35.793158 2.677392 -4.159294 -8.670554 1.399012 0.295272 3.000642 -1.243759 0.226950 -0.192310 -0.408190 -0.126940 
-4.426880 17.096840 -4.597780 -4.595457 -65.273605 -4.804016 -16.188446 11.571592 7.215818 17.469535 -16.860547 -46.349551 -44.254425 46.286384 64.236903 3.426208 17.391970 -0.875543 0.672750 0.547490 0.804340 17.930873 -7.455543 1.343961 -8.791518 3.848069 -32.221669 -13.241028 -2.710783 56.653599 -1.359625 -7.488641 1.475149 0.020410 -0.465370 0.408160 -0.713200 -7.234802 -9.697962 -2.621416 6.618408 49.056469 17.593474 2.743994 9.603352 -1.908990 -6.406943 -13.730438 -20.250144 19.712320 45.940929 -14.384170 19.395940 -23.849290 -12.669390 -13.389727 5.578316 2.901111 -5.298880 -2.033807 8.628921 -4.393588 -0.565894 -3.396052 3.067825 0.644810 -0.338110 0.685630 0.086000 17.073910 20.848751 10.028085 36.275929 4.071919 -3.831827 -9.797359 1.851858 0.243881 2.960385 -1.273626 0.254330 -0.206390 -0.372250 -0.129860 
-4.352520 16.958880 -4.591960 -4.324814 -63.818841 -4.973917 -16.170737 11.454273 7.508696 19.753429 -17.376771 -45.328494 -50.891292 54.626419 66.290650 3.698703 17.998926 -0.881205 0.633180 0.490640 0.836570 17.921616 -7.638600 1.013063 -9.154094 2.388487 -30.373445 -13.256717 -3.204298 55.035531 -1.278314 -7.265365 1.585518 0.025250 -0.404840 0.351150 -0.740502 -6.989577 -9.747240 -0.959769 5.382874 47.821791 17.013555 2.576626 9.337449 -2.038101 -5.428935 -13.693031 -18.233009 17.518266 48.323485 -14.547130 19.194950 -21.547740 -12.834157 -15.645118 4.632746 9.084819 -8.865617 -3.477527 11.054500 -4.852126 -0.797132 -3.514779 2.894845 0.638880 -0.287650 0.645400 0.088920 17.561545 21.992900 10.588727 36.575538 4.615893 -3.833357 -10.038630 3.844919 -0.062960 2.896744 -1.255097 0.170870 -0.117530 -0.378610 -0.157620 
-4.246170 16.869750 -4.580360 -3.140018 -61.162950 -7.263469 -16.021158 11.442836 7.631978 20.735952 -19.305857 -41.381031 -55.031953 60.282198 68.414689 3.697724 18.111501 -0.901242 0.709010 0.592370 0.882740 18.004762 -8.075328 0.568544 -10.661727 -0.249698 -27.861906 -13.167907 -4.084878 52.688795 -1.227919 -7.022006 1.627727 0.137140 -0.370280 0.368550 -0.928208 -6.692145 -9.607692 0.808603 3.251974 47.808221 16.397361 1.238328 10.567205 -4.127310 -5.418661 -12.852961 -18.549356 15.975035 46.240837 -13.374870 17.859620 -23.557010 -10.207446 -18.120395 2.130812 14.991725 -15.547407 -7.224969 17.790993 -11.104834 -2.116707 -3.594513 2.958712 0.637680 -0.246570 0.642020 0.098090 18.593790 23.031944 11.087100 35.714746 6.277028 -4.640906 -12.976732 7.744155 -0.971870 2.749372 -1.354006 0.145490 -0.052910 -0.375460 -0.172110 
-4.139040 16.799910 -4.574530 -3.087021 -58.938794 -7.759002 -15.985254 11.234216 7.762637 22.334319 -20.925267 -36.962124 -54.811653 65.265783 73.271243 3.691294 18.247717 -0.960802 0.733850 0.644750 0.909090 18.025276 -8.242803 0.364797 -11.271738 -2.141921 -28.184823 -14.035315 -4.670168 52.899450 -1.263390 -7.230027 1.528386 0.196820 -0.363930 0.417610 -1.201135 -6.298605 -9.598828 2.264425 1.368523 45.797560 15.830632 -0.357424 12.221666 -5.935359 -4.109878 -12.291320 -16.235131 14.457082 46.573588 -15.163400 19.340610 -24.536350 -5.600289 -21.238950 0.187547 17.365976 -21.479670 -10.580955 21.963229 -13.275361 -3.490740 -3.740854 3.050012 0.618080 -0.174500 0.644740 0.086080 17.061585 23.636700 11.137232 38.007860 7.332187 -6.918089 -15.377681 14.877907 -2.563439 2.558622 -1.471157 0.140410 -0.070530 -0.362820 -0.201320 
-4.005540 16.719830 -4.559240 -4.410873 -58.762223 -5.676155 -16.002384 10.499504 8.067324 26.891799 -20.555046 -34.144401 -49.979775 67.902168 79.235502 3.693488 18.673929 -1.001402 0.567280 0.433130 0.834250 18.051361 -8.278792 0.549187 -10.730329 -2.325659 -31.612116 -14.963193 -4.953441 54.375233 -1.217330 -7.679475 1.403955 0.137590 -0.161640 0.472560 -2.044801 -4.986928 -9.674150 5.786205 -0.864157 42.368545 12.884802 -1.168485 13.174553 -7.492354 -1.841640 -10.759516 -10.635819 11.745078 44.774863 -16.833240 21.742870 -20.556090 -1.386867 -23.254703 -1.477894 19.280109 -26.345826 -13.608069 27.411131 -21.606417 -6.034373 -4.001931 3.135743 0.512770 0.051530 0.479200 0.041110 15.352835 22.390997 10.066978 41.592511 8.803235 -10.105975 -15.629399 26.080059 -4.821809 2.286495 -1.514290 0.045750 -0.060520 -0.237830 -0.239060 
-3.854350 16.694120 -4.494840 -6.326319 -60.585224 -1.735386 -16.202163 9.553982 8.757048 32.685352 -20.628307 -31.447659 -37.106497 70.768344 93.645686 3.968338 20.155278 -1.201591 0.424300 0.254290 0.753310 17.997405 -7.942114 0.609973 -10.504783 -2.110624 -34.502179 -13.938105 -5.644050 52.792394 -1.049054 -7.449063 1.523626 0.097810 0.007410 0.427250 -2.638328 -4.196577 -9.902506 8.430973 -2.687285 38.789495 10.479397 -1.509087 12.098826 -7.814535 -1.682602 -9.476485 -10.201343 11.439726 43.094738 -17.115950 22.664830 -18.281580 0.547888 -21.949127 -2.345343 17.730991 -31.513075 -14.634536 33.943617 -31.158907 -10.099460 -4.081096 3.036693 0.479760 0.171990 0.345530 0.030250 13.819896 20.079819 8.984842 43.498417 9.247448 -12.892928 -8.189428 38.875940 -4.916495 2.089168 -1.438209 -0.088300 0.038880 -0.152470 -0.259600 
-3.694260 16.739090 -4.411230 -6.627350 -61.319046 0.210328 -16.344965 9.149570 9.097315 35.492287 -20.802813 -28.052426 -27.059942 69.673612 102.970184 4.249818 21.205160 -1.359062 0.390470 0.218240 0.697620 17.959403 -7.768749 0.548725 -11.208921 -2.421612 -35.489119 -12.891538 -5.885298 48.707761 -0.859776 -6.823235 1.724157 0.062810 0.070040 0.484230 -2.886735 -3.927158 -9.953122 9.343288 -3.946434 35.640883 8.716068 -2.705833 12.160689 -7.470074 -1.315453 -8.846501 -9.128989 11.600472 42.084060 -17.204570 23.893460 -16.075350 2.383012 -21.120151 -2.376346 15.752124 -34.525084 -15.066980 44.095005 -41.113085 -17.042595 -4.131853 3.060107 0.390540 0.246850 0.293570 0.045570 11.166662 18.424122 8.050891 44.397317 11.125474 -13.321038 3.969394 48.059679 -1.876438 2.071364 -1.563921 -0.048680 -0.026410 -0.134050 -0.226900 
-3.552620 16.867890 -4.315990 -8.197445 -62.598526 2.733010 -16.454225 9.234153 9.166124 37.061877 -20.246864 -23.300539 -21.668458 67.175659 106.057794 4.228760 21.207753 -1.402985 0.394230 0.226600 0.690320 17.880873 -7.821537 0.475290 -10.231596 -2.208001 -34.294858 -12.301650 -5.147604 42.175964 -0.638121 -5.636847 2.121184 0.056130 0.037990 0.482560 -3.034373 -3.880821 -9.787820 10.648343 -4.728419 32.679672 7.317554 -3.488536 13.337132 -6.748229 -1.446649 -9.132252 -10.094765 11.546073 43.273199 -17.666600 23.760260 -15.716940 4.151631 -21.931428 -2.409691 13.256668 -38.650174 -14.780264 53.257130 -47.189751 -24.092204 -4.127742 2.961000 0.379110 0.229800 0.299170 0.041720 7.742182 18.935663 8.678918 45.608892 11.781064 -13.938318 17.715532 57.191550 3.380567 2.101212 -1.725929 -0.024920 -0.059280 -0.139250 -0.221440 
-3.379410 17.074750 -4.250980 -5.788092 -61.768621 -0.452616 -16.197629 9.941756 8.469234 33.726080 -20.646008 -17.182328 -11.325512 59.546184 112.846392 4.246909 21.631534 -1.581036 0.505000 0.357900 0.741730 18.017790 -8.339385 0.286140 -12.339233 -3.090099 -29.872421 -10.049827 -4.825514 33.983799 -0.456878 -4.426338 2.494320 0.125530 -0.031100 0.545910 -2.985853 -3.840545 -9.350526 10.024301 -5.239908 32.217534 5.232866 -4.744242 15.451535 -7.046091 -0.342767 -8.466400 -8.034669 10.694701 42.802557 -17.668060 23.671150 -16.877600 5.226743 -23.242644 -3.083108 14.419467 -42.776930 -15.386706 61.402834 -56.015116 -32.391865 -4.108740 2.892500 0.353610 0.221680 0.338820 0.062500 6.919689 18.521557 8.329451 46.887764 14.286989 -13.319586 28.805909 65.138887 9.407009 2.121443 -1.956540 0.049760 -0.150110 -0.194020 -0.215670 
